<?xml version="1.0" encoding="utf-8"?>
<!-- Generator: Adobe Illustrator 26.5.0, SVG Export Plug-In . SVG Version: 6.00 Build 0)  -->
<svg version="1.1" xmlns="http://www.w3.org/2000/svg" xmlns:xlink="http://www.w3.org/1999/xlink" x="0px" y="0px"
	 viewBox="0 0 159.9 143.3" style="enable-background:new 0 0 159.9 143.3;" xml:space="preserve">
<style type="text/css">
	.st0{fill:url(#SVGID_1_);}
	.st1{fill:url(#SVGID_00000070823373347774717490000009801408192977455514_);}
	.st2{opacity:0.34;fill:url(#SVGID_00000163777790339364852870000000476680751331968138_);}
	.st3{fill:url(#SVGID_00000038410579603468919150000016921762873523222410_);}
	.st4{opacity:0.34;fill:url(#SVGID_00000001653914060827228680000011283172985981627822_);}
	.st5{opacity:0.34;fill:url(#SVGID_00000103964773721922966390000017684566864108879256_);}
	.st6{fill:url(#SVGID_00000029025393624311489430000007227162262794316955_);}
	.st7{fill:url(#SVGID_00000114046975087426961650000003789783381063791294_);}
	.st8{fill:url(#SVGID_00000163760205480757374900000006931713579253484706_);}
	.st9{opacity:0.34;fill:url(#SVGID_00000049934279453801066750000016983820461294659507_);}
	.st10{fill:#FFFFFF;}
	.st11{fill:url(#SVGID_00000034064414259731276480000006921482020540951450_);}
	.st12{opacity:0.34;fill:url(#SVGID_00000002368340498890526770000001894843004880542122_);}
	.st13{opacity:0.34;fill:url(#SVGID_00000148640830445522323490000001822436302165507489_);}
	.st14{fill:url(#SVGID_00000005267927828315570500000010934751950033980834_);}
	.st15{fill:url(#SVGID_00000129899835512731568400000009959670604026792866_);}
	.st16{fill:url(#SVGID_00000101817892715869492230000008652091178793799353_);}
	.st17{opacity:0.34;fill:url(#SVGID_00000042006578108889015640000011496820075476024500_);}
	.st18{fill:url(#SVGID_00000102518827361775489510000016380600509807803064_);}
	.st19{fill:url(#SVGID_00000124869518693375454700000002676179561601510535_);}
	.st20{fill:url(#SVGID_00000181795670566281534150000001135431121041912240_);}
	.st21{fill:url(#SVGID_00000072998874765786502530000012317014348568188057_);}
	.st22{fill:url(#SVGID_00000106114282888324836210000014037243066540600508_);}
	.st23{fill:url(#SVGID_00000171709163208619496210000003082058270433402781_);}
	.st24{fill:url(#SVGID_00000072280248510183501780000010724912285434237589_);}
	.st25{opacity:0.92;fill:url(#SVGID_00000007412101258762792080000001744130320397309631_);}
	.st26{fill:url(#SVGID_00000099635778296960002720000003924347230005985445_);}
	.st27{fill:url(#SVGID_00000088849467422798857190000004790785151943084682_);}
	.st28{opacity:0.19;fill:url(#SVGID_00000078011329548236863240000004063225965161232566_);}
</style>
<g id="BACKGROUND">
</g>
<g id="OBJECTS">
	<g>
		<g>
			
				<image style="overflow:visible;" width="4914" height="3137" xlink:href="45222FB3.png"  transform="matrix(0.24 0 0 0.24 -1168.12 81.28)">
			</image>
		</g>
		<g>
			
				<image style="overflow:visible;" width="4591" height="3659" xlink:href="45222FB1.png"  transform="matrix(0.24 0 0 0.24 -1076.6801 132.16)">
			</image>
		</g>
	</g>
	<g>
		<g>
			
				<linearGradient id="SVGID_1_" gradientUnits="userSpaceOnUse" x1="147.2514" y1="81.0306" x2="129.382" y2="78.5372" gradientTransform="matrix(0.996 -8.900000e-02 8.900000e-02 0.996 -41.7154 25.0342)">
				<stop  offset="0" style="stop-color:#FFFFFF"/>
				<stop  offset="0.5196" style="stop-color:#D3C7C8"/>
				<stop  offset="0.9944" style="stop-color:#99868C"/>
			</linearGradient>
			<path class="st0" d="M119.1,43.1c0,0-6,89.5-7.3,91.5c-1.3,2-4.7,7.9-5.8,7.6c-0.1,0-1.9-0.1-2.3-2.3c-2.7-15.2-9.2-77-9.2-77
				L119.1,43.1z"/>
			
				<linearGradient id="SVGID_00000035495931519179650630000007051069002664789394_" gradientUnits="userSpaceOnUse" x1="145.2372" y1="91.7537" x2="129.1679" y2="-2.4453" gradientTransform="matrix(0.996 -8.900000e-02 8.900000e-02 0.996 -41.7154 25.0342)">
				<stop  offset="0" style="stop-color:#FFFFFF"/>
				<stop  offset="0.5196" style="stop-color:#D3C7C8"/>
				<stop  offset="0.9944" style="stop-color:#99868C"/>
			</linearGradient>
			<path style="fill:url(#SVGID_00000035495931519179650630000007051069002664789394_);" d="M112.8,45.4c0,0-2,84.9-3.3,86.9
				c-1.3,2-4.7,7.9-5.8,7.6c-1.1-0.3-11.5-79.3-11.5-79.3L112.8,45.4z"/>
			
				<linearGradient id="SVGID_00000128459621887385835380000012514166113343437454_" gradientUnits="userSpaceOnUse" x1="145.2372" y1="91.7537" x2="129.1679" y2="-2.4453" gradientTransform="matrix(0.996 -8.900000e-02 8.900000e-02 0.996 -41.7154 25.0342)">
				<stop  offset="0" style="stop-color:#99868C"/>
				<stop  offset="0.9944" style="stop-color:#443C51"/>
			</linearGradient>
			<path style="opacity:0.34;fill:url(#SVGID_00000128459621887385835380000012514166113343437454_);" d="M112.8,45.4
				c0,0-2,84.9-3.3,86.9c-1.3,2-4.7,7.9-5.8,7.6c-1.1-0.3-11.5-79.3-11.5-79.3L112.8,45.4z"/>
			
				<linearGradient id="SVGID_00000142178518768284624780000010158282236458326457_" gradientUnits="userSpaceOnUse" x1="79.1492" y1="59.3708" x2="9.3321" y2="218.399" gradientTransform="matrix(0.996 -8.900000e-02 8.900000e-02 0.996 -41.7154 25.0342)">
				<stop  offset="0" style="stop-color:#FFFFFF"/>
				<stop  offset="0.5196" style="stop-color:#D3C7C8"/>
				<stop  offset="0.9944" style="stop-color:#99868C"/>
			</linearGradient>
			<path style="fill:url(#SVGID_00000142178518768284624780000010158282236458326457_);" d="M38.3,100.6c0,0-1.3,29.5-2.7,30.9
				c-1.3,1.4-6,3.2-6.6,3.3c-0.6,0.1-10-22.7-10-22.7L38.3,100.6z"/>
			
				<linearGradient id="SVGID_00000044866127265820684370000000209668126575251631_" gradientUnits="userSpaceOnUse" x1="79.1492" y1="59.3708" x2="9.3321" y2="218.399" gradientTransform="matrix(0.996 -8.900000e-02 8.900000e-02 0.996 -41.7154 25.0342)">
				<stop  offset="0" style="stop-color:#99868C"/>
				<stop  offset="0.9944" style="stop-color:#443C51"/>
			</linearGradient>
			<path style="opacity:0.34;fill:url(#SVGID_00000044866127265820684370000000209668126575251631_);" d="M38.3,100.6
				c0,0-1.3,29.5-2.7,30.9c-1.3,1.4-6,3.2-6.6,3.3c-0.6,0.1-10-22.7-10-22.7L38.3,100.6z"/>
			
				<linearGradient id="SVGID_00000089544745731886292880000010430458195274425749_" gradientUnits="userSpaceOnUse" x1="79.1492" y1="59.3708" x2="9.3321" y2="218.399" gradientTransform="matrix(0.996 -8.900000e-02 8.900000e-02 0.996 -41.7154 25.0342)">
				<stop  offset="0" style="stop-color:#99868C"/>
				<stop  offset="0.9944" style="stop-color:#443C51"/>
			</linearGradient>
			<path style="opacity:0.34;fill:url(#SVGID_00000089544745731886292880000010430458195274425749_);" d="M38.3,100.6
				c0,0-1.3,29.5-2.7,30.9c-1.3,1.4-6,3.2-6.6,3.3c-0.6,0.1-10-22.7-10-22.7L38.3,100.6z"/>
			
				<linearGradient id="SVGID_00000119813149077962539990000008709468322798148231_" gradientUnits="userSpaceOnUse" x1="71.926" y1="106.2294" x2="63.3915" y2="84.7676" gradientTransform="matrix(0.996 -8.900000e-02 8.900000e-02 0.996 -41.7154 25.0342)">
				<stop  offset="0" style="stop-color:#FFFFFF"/>
				<stop  offset="0.9944" style="stop-color:#D3C7C8;stop-opacity:0"/>
			</linearGradient>
			<path style="fill:url(#SVGID_00000119813149077962539990000008709468322798148231_);" d="M34,99.7c0.3,6,0.5,12.2,0.4,18.7
				c0,4.9-0.2,9.6-0.4,14.1c0.7-0.4,1.2-0.8,1.6-1.1c1-1.1,2.1-20.2,2.5-28.2C36.8,102.1,35.4,100.9,34,99.7z"/>
			
				<linearGradient id="SVGID_00000067917758817442737660000005970690919264866197_" gradientUnits="userSpaceOnUse" x1="69.405" y1="97.8799" x2="64.8329" y2="97.0486" gradientTransform="matrix(0.996 -8.900000e-02 8.900000e-02 0.996 -41.7154 25.0342)">
				<stop  offset="0" style="stop-color:#FFFFFF"/>
				<stop  offset="0.9944" style="stop-color:#D3C7C8;stop-opacity:0"/>
			</linearGradient>
			<path style="fill:url(#SVGID_00000067917758817442737660000005970690919264866197_);" d="M34,99.7c0.3,6,0.5,12.2,0.4,18.7
				c0,4.9-0.2,9.6-0.4,14.1c0.7-0.4,1.2-0.8,1.6-1.1c1-1.1,2.1-20.2,2.5-28.2C36.8,102.1,35.4,100.9,34,99.7z"/>
			
				<linearGradient id="SVGID_00000054951784097601590990000016218390596063764901_" gradientUnits="userSpaceOnUse" x1="10.9353" y1="67.1342" x2="106.5179" y2="102.4582" gradientTransform="matrix(0.996 -8.900000e-02 8.900000e-02 0.996 -41.7154 25.0342)">
				<stop  offset="0" style="stop-color:#FFFFFF"/>
				<stop  offset="0.5196" style="stop-color:#D3C7C8"/>
				<stop  offset="0.9944" style="stop-color:#99868C"/>
			</linearGradient>
			<path style="fill:url(#SVGID_00000054951784097601590990000016218390596063764901_);" d="M35.4,97.7c0,0-28.4-8.1-30.1-7.3
				c-1.7,0.8-5,4.6-5.2,5.2c-0.3,0.6,18.3,16.7,18.3,16.7L35.4,97.7z"/>
			
				<linearGradient id="SVGID_00000181089693626604632870000018052731078853989799_" gradientUnits="userSpaceOnUse" x1="10.9353" y1="67.1342" x2="106.5179" y2="102.4582" gradientTransform="matrix(0.996 -8.900000e-02 8.900000e-02 0.996 -41.7154 25.0342)">
				<stop  offset="0" style="stop-color:#99868C"/>
				<stop  offset="0.9944" style="stop-color:#443C51"/>
			</linearGradient>
			<path style="opacity:0.34;fill:url(#SVGID_00000181089693626604632870000018052731078853989799_);" d="M35.4,97.7
				c0,0-28.4-8.1-30.1-7.3c-1.7,0.8-5,4.6-5.2,5.2c-0.3,0.6,18.3,16.7,18.3,16.7L35.4,97.7z"/>
			<path class="st10" d="M109.9,31.7c0,0-89.1-10.9-91.3-10S10,24.9,10.1,26c0,0.1-0.2,1.9,1.8,2.7c14.5,5.5,73.9,23.4,73.9,23.4
				L109.9,31.7z"/>
			
				<linearGradient id="SVGID_00000152942264946040790420000014535697763814345621_" gradientUnits="userSpaceOnUse" x1="53.1322" y1="28.5729" x2="253.7205" y2="1.4214" gradientTransform="matrix(0.996 -8.900000e-02 8.900000e-02 0.996 -41.7154 25.0342)">
				<stop  offset="0" style="stop-color:#FFFFFF"/>
				<stop  offset="0.5196" style="stop-color:#D3C7C8"/>
				<stop  offset="1" style="stop-color:#FFFFFF"/>
			</linearGradient>
			<path style="fill:url(#SVGID_00000152942264946040790420000014535697763814345621_);" d="M106.4,37.4c0,0-83.7-13.9-85.9-13
				c-2.2,0.9-8.7,3.1-8.6,4.3c0.1,1.1,75.7,26.1,75.7,26.1L106.4,37.4z"/>
			
				<linearGradient id="SVGID_00000165951354652034838310000001794270252578077079_" gradientUnits="userSpaceOnUse" x1="53.1322" y1="28.5729" x2="253.7205" y2="1.4214" gradientTransform="matrix(0.996 -8.900000e-02 8.900000e-02 0.996 -41.7154 25.0342)">
				<stop  offset="0" style="stop-color:#99868C"/>
				<stop  offset="0.9944" style="stop-color:#443C51"/>
			</linearGradient>
			<path style="opacity:0.34;fill:url(#SVGID_00000165951354652034838310000001794270252578077079_);" d="M106.4,37.4
				c0,0-83.7-13.9-85.9-13c-2.2,0.9-8.7,3.1-8.6,4.3c0.1,1.1,75.7,26.1,75.7,26.1L106.4,37.4z"/>
			
				<linearGradient id="SVGID_00000033349890610951042140000000547815634393449657_" gradientUnits="userSpaceOnUse" x1="53.1322" y1="28.5729" x2="253.7205" y2="1.4214" gradientTransform="matrix(0.996 -8.900000e-02 8.900000e-02 0.996 -41.7154 25.0342)">
				<stop  offset="0" style="stop-color:#99868C"/>
				<stop  offset="0.9944" style="stop-color:#443C51"/>
			</linearGradient>
			<path style="opacity:0.34;fill:url(#SVGID_00000033349890610951042140000000547815634393449657_);" d="M106.4,37.4
				c0,0-83.7-13.9-85.9-13c-2.2,0.9-8.7,3.1-8.6,4.3c0.1,1.1,75.7,26.1,75.7,26.1L106.4,37.4z"/>
			
				<linearGradient id="SVGID_00000173146206614657254090000008697434675907750574_" gradientUnits="userSpaceOnUse" x1="42.3824" y1="156.9489" x2="48.2002" y2="162.7667" gradientTransform="matrix(0.9994 -3.520000e-02 3.520000e-02 0.9994 28.5634 -128.0077)">
				<stop  offset="0" style="stop-color:#FFFFFF"/>
				<stop  offset="0.5196" style="stop-color:#D3C7C8"/>
				<stop  offset="1" style="stop-color:#FFFFFF"/>
			</linearGradient>
			<path style="fill:url(#SVGID_00000173146206614657254090000008697434675907750574_);" d="M70.1,36.8c2.9,5.4,18.6-9.2,19.2-11
				c0.6-1.8-4.7-7.3-6.4-6.8C81.1,19.5,68.1,33.1,70.1,36.8z"/>
			<g>
				<path class="st10" d="M89.3,25.9c-0.1,0.2-0.4,0.6-0.9,1.2c-1.1-2.3-4.8-5.9-6.2-5.5c-1.4,0.4-9.8,9-12.3,14.4
					c-0.2-4.6,11.3-16.5,12.9-17C84.5,18.5,89.9,24.1,89.3,25.9z"/>
			</g>
			
				<linearGradient id="SVGID_00000116195563973645865620000007900910630918278835_" gradientUnits="userSpaceOnUse" x1="-46.615" y1="279.6032" x2="-38.7192" y2="285.0056" gradientTransform="matrix(0.9999 1.190000e-02 -1.190000e-02 0.9999 94.9466 -256.1023)">
				<stop  offset="0" style="stop-color:#FFFFFF"/>
				<stop  offset="0.5196" style="stop-color:#D3C7C8"/>
				<stop  offset="1" style="stop-color:#FFFFFF"/>
			</linearGradient>
			<path style="fill:url(#SVGID_00000116195563973645865620000007900910630918278835_);" d="M41.1,34c3.6,4.9,17-11.8,17.4-13.7
				c0.3-1.8-5.7-6.6-7.4-5.8C49.5,15.2,38.6,30.5,41.1,34z"/>
			<g>
				<path class="st10" d="M58.5,20.3c0,0.2-0.3,0.7-0.7,1.3c-1.4-2.1-5.6-5.1-6.9-4.5c-1.3,0.6-8.4,10.4-10,16.1
					c-0.9-4.5,8.8-18,10.3-18.7C52.7,13.7,58.8,18.5,58.5,20.3z"/>
			</g>
			
				<linearGradient id="SVGID_00000183251128748241445400000014898140234925110945_" gradientUnits="userSpaceOnUse" x1="66.2659" y1="88.0418" x2="199.2514" y2="-7.8185" gradientTransform="matrix(0.996 -8.900000e-02 8.900000e-02 0.996 -41.7154 25.0342)">
				<stop  offset="0" style="stop-color:#FFFFFF"/>
				<stop  offset="0.5196" style="stop-color:#D3C7C8"/>
				<stop  offset="1" style="stop-color:#FFFFFF"/>
			</linearGradient>
			<path style="fill:url(#SVGID_00000183251128748241445400000014898140234925110945_);" d="M159.3,0.7c-5.5-6.7-59.7,37-80,52.6
				c-20.3,15.6-68,60.3-66.2,62.2c1.8,1.9,43.3-19.3,78.3-48.3C126.4,38.3,165.4,8.1,159.3,0.7z"/>
			
				<linearGradient id="SVGID_00000046317891698410700220000012213812705724223879_" gradientUnits="userSpaceOnUse" x1="66.2659" y1="88.0418" x2="199.2514" y2="-7.8185" gradientTransform="matrix(0.996 -8.900000e-02 8.900000e-02 0.996 -41.7154 25.0342)">
				<stop  offset="0" style="stop-color:#99868C"/>
				<stop  offset="0.9944" style="stop-color:#443C51"/>
			</linearGradient>
			<path style="opacity:0.34;fill:url(#SVGID_00000046317891698410700220000012213812705724223879_);" d="M159.3,0.7
				c-5.5-6.7-59.7,37-80,52.6c-20.3,15.6-68,60.3-66.2,62.2c1.8,1.9,43.3-19.3,78.3-48.3C126.4,38.3,165.4,8.1,159.3,0.7z"/>
			
				<linearGradient id="SVGID_00000021119956485461344830000014220108501301387674_" gradientUnits="userSpaceOnUse" x1="171.1055" y1="23.485" x2="167.365" y2="18.7054" gradientTransform="matrix(0.996 -8.900000e-02 8.900000e-02 0.996 -41.7154 25.0342)">
				<stop  offset="0" style="stop-color:#FFFFFF"/>
				<stop  offset="0.9944" style="stop-color:#D3C7C8;stop-opacity:0"/>
			</linearGradient>
			<path style="fill:url(#SVGID_00000021119956485461344830000014220108501301387674_);" d="M159.3,0.7
				C159.3,0.7,159.3,0.7,159.3,0.7c-0.1-0.1-0.2-0.2-0.3-0.3c-0.1,0-0.1-0.1-0.2-0.1c-0.1,0-0.1-0.1-0.2-0.1c-0.1,0-0.2-0.1-0.3-0.1
				c0,0-0.1,0-0.1,0c-0.1,0-0.2,0-0.4-0.1c0,0-0.1,0-0.1,0c-0.2,0-0.3,0-0.5,0c0,0,0,0,0,0c-0.2,0-0.4,0-0.6,0c0,0,0,0,0,0
				c-0.4,0.1-0.8,0.1-1.3,0.3c0,0,0,0,0,0c2.4-0.1,3.1,0.4,3.4,0.9c2.2,4.5-39.5,35.5-40.9,38.9c-0.5,1.2-0.6,2.2-0.8,3.1
				c-0.4,1.9-15.7,14.1-18.7,18.2c24-19.8,48.4-39.4,57.7-51.2C159.4,5.9,160.8,2.5,159.3,0.7z"/>
			
				<linearGradient id="SVGID_00000126301740244559901370000017096451253564703645_" gradientUnits="userSpaceOnUse" x1="170.4766" y1="23.9772" x2="166.7361" y2="19.1976" gradientTransform="matrix(0.996 -8.900000e-02 8.900000e-02 0.996 -41.7154 25.0342)">
				<stop  offset="0" style="stop-color:#FFFFFF"/>
				<stop  offset="0.9944" style="stop-color:#D3C7C8;stop-opacity:0"/>
			</linearGradient>
			<path style="fill:url(#SVGID_00000126301740244559901370000017096451253564703645_);" d="M159.3,0.7
				C159.3,0.7,159.3,0.7,159.3,0.7c-0.1-0.1-0.2-0.2-0.3-0.3c-0.1,0-0.1-0.1-0.2-0.1c-0.1,0-0.1-0.1-0.2-0.1c-0.1,0-0.2-0.1-0.3-0.1
				c0,0-0.1,0-0.1,0c-0.1,0-0.2,0-0.4-0.1c0,0-0.1,0-0.1,0c-0.2,0-0.3,0-0.5,0c0,0,0,0,0,0c-0.2,0-0.4,0-0.6,0c0,0,0,0,0,0
				c-0.4,0.1-0.8,0.1-1.3,0.3c0,0,0,0,0,0c2.4-0.1,3.1,0.4,3.4,0.9c2.2,4.5-39.5,35.5-40.9,38.9c-0.5,1.2-0.6,2.2-0.8,3.1
				c-0.4,1.9-27.7,22.1-18.7,18.2c24-19.8,48.4-39.4,57.7-51.2C159.4,5.9,160.8,2.5,159.3,0.7z"/>
			
				<linearGradient id="SVGID_00000097470528523934203790000011984295418687947418_" gradientUnits="userSpaceOnUse" x1="121.1952" y1="57.0913" x2="72.0344" y2="82.9746" gradientTransform="matrix(0.996 -8.900000e-02 8.900000e-02 0.996 -41.7154 25.0342)">
				<stop  offset="0" style="stop-color:#FFFFFF"/>
				<stop  offset="0.9944" style="stop-color:#D3C7C8;stop-opacity:0"/>
			</linearGradient>
			<path style="fill:url(#SVGID_00000097470528523934203790000011984295418687947418_);" d="M81.3,75.7c29.9-24,36.1-29.4,35.9-29.7
				c-0.3-0.4-22.5,16-37.7,27.5C60,88.3,59.2,89.6,51.3,94.4C37,103.2,20.1,111.2,20.5,112c0,0.1,0.1,0.1,0.2,0.1
				c2.5-0.1,11.2-5.9,12.9-5.7l4.5-2c0-0.1,0-0.3,0-0.4c6.5-3.8,13.3-7.9,20.1-12.4C66.4,86.3,74.1,81,81.3,75.7z"/>
			
				<linearGradient id="SVGID_00000095308479815454244380000002816501668937461418_" gradientUnits="userSpaceOnUse" x1="152.0904" y1="58.2164" x2="156.0384" y2="65.9046" gradientTransform="matrix(0.996 -8.900000e-02 8.900000e-02 0.996 -41.7154 25.0342)">
				<stop  offset="0" style="stop-color:#FFFFFF"/>
				<stop  offset="0.5196" style="stop-color:#D3C7C8"/>
				<stop  offset="1" style="stop-color:#FFFFFF"/>
			</linearGradient>
			<path style="fill:url(#SVGID_00000095308479815454244380000002816501668937461418_);" d="M108.2,79.9c-4.6-4.1,13.4-15.8,15.3-16
				c1.9-0.2,6,6.3,5.1,7.9C127.6,73.4,111.4,82.8,108.2,79.9z"/>
			<g>
				
					<linearGradient id="SVGID_00000143602489391321209750000009939681783136663487_" gradientUnits="userSpaceOnUse" x1="154.9341" y1="58.029" x2="156.4579" y2="81.3023" gradientTransform="matrix(0.996 -8.900000e-02 8.900000e-02 0.996 -41.7154 25.0342)">
					<stop  offset="0" style="stop-color:#FFFFFF"/>
					<stop  offset="0.9944" style="stop-color:#D3C7C8;stop-opacity:0"/>
				</linearGradient>
				<path style="fill:url(#SVGID_00000143602489391321209750000009939681783136663487_);" d="M123.5,64c-0.2,0-0.7,0.2-1.4,0.6
					c2,1.6,4.6,6.1,3.8,7.3c-0.7,1.2-11.1,7.4-17,8.4c4.4,1.3,18.7-7,19.6-8.5C129.4,70.3,125.3,63.8,123.5,64z"/>
			</g>
			
				<linearGradient id="SVGID_00000155136693215547463880000000212837322862650812_" gradientUnits="userSpaceOnUse" x1="457.1146" y1="-372.1098" x2="460.0237" y2="-365.0448" gradientTransform="matrix(0.9628 -0.2701 0.2701 0.9628 -226.3082 579.5786)">
				<stop  offset="0" style="stop-color:#FFFFFF"/>
				<stop  offset="0.5196" style="stop-color:#D3C7C8"/>
				<stop  offset="1" style="stop-color:#FFFFFF"/>
			</linearGradient>
			<path style="fill:url(#SVGID_00000155136693215547463880000000212837322862650812_);" d="M108.1,109.4
				c-5.2-3.2,10.3-18,12.1-18.5c1.8-0.5,7.1,5.1,6.4,6.8C126,99.4,111.7,111.7,108.1,109.4z"/>
			<g>
				<path class="st10" d="M120.2,90.9c-0.2,0.1-0.7,0.4-1.3,0.8c2.2,1.2,5.6,5.2,5.1,6.5c-0.5,1.3-9.6,9.3-15.1,11.4
					c4.6,0.5,17.1-10.3,17.7-11.9C127.2,96.1,122,90.4,120.2,90.9z"/>
			</g>
			
				<linearGradient id="SVGID_00000113339427666786707030000000513508880796915878_" gradientUnits="userSpaceOnUse" x1="170.3565" y1="6.7727" x2="171.7029" y2="8.9477" gradientTransform="matrix(0.996 -8.900000e-02 8.900000e-02 0.996 -41.7154 25.0342)">
				<stop  offset="0" style="stop-color:#FFFFFF"/>
				<stop  offset="0.9944" style="stop-color:#D3C7C8;stop-opacity:0"/>
			</linearGradient>
			<path style="opacity:0.92;fill:url(#SVGID_00000113339427666786707030000000513508880796915878_);" d="M159.3,0.7
				c-4-4.8-34.8,17.8-58.4,35.9l0,0c5.8,0.7,22.9-14,34.1-21.4c9.7-6.4,20.2-9.8,25-12.1C160,2.2,159.8,1.3,159.3,0.7z"/>
			<g>
				
					<linearGradient id="SVGID_00000057135376304919531510000013638187940927176877_" gradientUnits="userSpaceOnUse" x1="78.265" y1="80.0001" x2="100.7065" y2="51.7404" gradientTransform="matrix(0.996 -8.900000e-02 8.900000e-02 0.996 -41.7154 25.0342)">
					<stop  offset="0" style="stop-color:#FFFFFF"/>
					<stop  offset="0.9944" style="stop-color:#D3C7C8;stop-opacity:0"/>
				</linearGradient>
				<path style="fill:url(#SVGID_00000057135376304919531510000013638187940927176877_);" d="M86.4,57.8c-0.7-0.3-9.7-0.7-15.4,2.3
					C58.3,70.6,41.1,86.3,28.8,98.3c-3.6,3.6-6.5,6.5-7.4,7.4C28.4,103.6,87.5,58.3,86.4,57.8z"/>
				
					<linearGradient id="SVGID_00000156577590718240700760000017298072251670439345_" gradientUnits="userSpaceOnUse" x1="98.2168" y1="63.5469" x2="66.6833" y2="80.1494" gradientTransform="matrix(0.996 -8.900000e-02 8.900000e-02 0.996 -41.7154 25.0342)">
					<stop  offset="0" style="stop-color:#FFFFFF"/>
					<stop  offset="0.9944" style="stop-color:#D3C7C8;stop-opacity:0"/>
				</linearGradient>
				<path style="fill:url(#SVGID_00000156577590718240700760000017298072251670439345_);" d="M21.2,105.8
					C21.2,105.8,21.2,105.8,21.2,105.8c-0.2,0.2-0.1,0.1,0.2-0.2C21.3,105.7,21.2,105.8,21.2,105.8z"/>
			</g>
		</g>
		
			<linearGradient id="SVGID_00000012474569427941272060000017782081522594123676_" gradientUnits="userSpaceOnUse" x1="18060.127" y1="-9396.085" x2="4816.7734" y2="-2423.4309" gradientTransform="matrix(0.9938 -0.1116 0.1116 0.9938 -43.4945 33.6293)">
			<stop  offset="0" style="stop-color:#D2E9EC"/>
			<stop  offset="0.2123" style="stop-color:#A0D0D7"/>
			<stop  offset="1" style="stop-color:#4376B8"/>
		</linearGradient>
		<path style="opacity:0.19;fill:url(#SVGID_00000012474569427941272060000017782081522594123676_);" d="M156,11.4
			c2.8-3.6,4.3-6.5,3.8-8.5c0,0,0,0,0,0c0-0.2-0.1-0.3-0.2-0.5c0,0,0-0.1-0.1-0.1c-0.1-0.2-0.2-0.3-0.3-0.5c0,0,0,0,0,0c0,0,0,0,0,0
			c-0.1-0.1-0.2-0.2-0.2-0.2c-0.1,0-0.1-0.1-0.2-0.1c0,0,0,0-0.1,0c-0.1,0-0.1-0.1-0.2-0.1c0,0,0,0,0,0c-0.1,0-0.2-0.1-0.3-0.1
			c0,0,0,0,0,0c0,0,0,0-0.1,0c-0.1,0-0.3-0.1-0.4-0.1c0,0,0,0,0,0c0,0-0.1,0-0.1,0c0,0,0,0,0,0c-0.3,0-0.7,0-1.1,0c0,0,0,0,0,0
			c0,0,0,0,0,0c0,0,0,0,0,0c-0.4,0.1-0.8,0.1-1.3,0.3c0,0,0,0,0,0c0,0,0,0,0,0c-8.8,2.4-29.3,17.1-47.8,31.1
			c-3.7-0.5-11.5-1.4-21-2.5c1.5-1.5,2.5-2.6,2.7-3.1c0-0.1,0.1-0.2,0-0.4c-0.1-2.1-4.9-6.9-6.5-6.5l0,0l0,0c-0.1,0-0.1,0-0.2,0.1
			c0,0-0.1,0-0.1,0c-0.1,0-0.1,0.1-0.2,0.1c0,0-0.1,0.1-0.1,0.1c-0.1,0-0.1,0.1-0.2,0.1c0,0-0.1,0.1-0.1,0.1
			c-0.1,0.1-0.1,0.1-0.2,0.2c-0.1,0-0.1,0.1-0.2,0.1c-0.1,0.1-0.1,0.1-0.2,0.2c-0.1,0.1-0.1,0.1-0.2,0.2c-0.1,0.1-0.2,0.1-0.2,0.2
			c-0.1,0.1-0.1,0.1-0.2,0.2c-0.1,0.1-0.2,0.2-0.3,0.2c-0.1,0.1-0.1,0.1-0.2,0.2c-0.1,0.1-0.2,0.2-0.3,0.3c-0.1,0.1-0.2,0.2-0.2,0.2
			c-0.1,0.1-0.2,0.2-0.3,0.3c-0.1,0.1-0.2,0.2-0.3,0.3c-0.1,0.1-0.2,0.2-0.3,0.3c-0.1,0.1-0.2,0.2-0.3,0.3c-0.1,0.1-0.2,0.2-0.3,0.3
			c-0.1,0.1-0.2,0.2-0.3,0.3c-0.1,0.1-0.2,0.2-0.3,0.3c-0.1,0.1-0.2,0.2-0.3,0.3c-0.1,0.1-0.2,0.2-0.3,0.3c-0.1,0.1-0.2,0.2-0.3,0.3
			c-0.1,0.1-0.2,0.2-0.3,0.3c-0.1,0.1-0.2,0.2-0.3,0.3c-0.1,0.1-0.2,0.2-0.3,0.3c-0.2,0.2-0.4,0.5-0.6,0.7c-0.1,0.1-0.2,0.2-0.3,0.3
			c-0.1,0.1-0.2,0.3-0.3,0.4c-0.1,0.1-0.2,0.2-0.3,0.3c0,0-0.1,0.1-0.1,0.1c-6.4-0.7-13-1.5-19.4-2.2c1.5-1.9,2.7-3.5,3.2-4.4
			c0,0,0,0,0,0c0-0.1,0.1-0.2,0.1-0.2c0,0,0-0.1,0-0.1c0-0.1,0.1-0.2,0.1-0.2c0-0.1,0-0.2,0-0.4c-0.4-2-5.8-6.1-7.4-5.4c0,0,0,0,0,0
			c0,0-0.1,0.1-0.2,0.1c0,0-0.1,0-0.1,0.1c0,0-0.1,0.1-0.1,0.1c0,0-0.1,0.1-0.1,0.1c-0.1,0-0.1,0.1-0.2,0.2c0,0-0.1,0.1-0.1,0.1
			c-0.1,0.1-0.1,0.1-0.2,0.2c0,0.1-0.1,0.1-0.1,0.2c-0.1,0.1-0.1,0.1-0.2,0.2c-0.1,0.1-0.1,0.1-0.2,0.2c-0.1,0.1-0.1,0.2-0.2,0.2
			c-0.1,0.1-0.1,0.1-0.2,0.2c-0.1,0.1-0.1,0.2-0.2,0.3c-0.1,0.1-0.1,0.2-0.2,0.3c-0.1,0.1-0.2,0.2-0.2,0.3c-0.1,0.1-0.1,0.2-0.2,0.3
			c-0.1,0.1-0.2,0.2-0.2,0.3C48.1,19,48,19.1,48,19.2c-0.1,0.1-0.2,0.2-0.2,0.3c-0.1,0.1-0.2,0.2-0.2,0.3c-0.1,0.1-0.2,0.2-0.2,0.3
			c-0.1,0.1-0.2,0.2-0.2,0.3c-0.1,0.1-0.2,0.3-0.3,0.4c-0.1,0.1-0.2,0.2-0.2,0.3c-0.1,0.1-0.2,0.3-0.3,0.4c-0.1,0.1-0.2,0.2-0.2,0.4
			c-0.1,0.1-0.2,0.3-0.2,0.4c-0.1,0.1-0.2,0.2-0.2,0.4c-0.1,0.1-0.2,0.3-0.3,0.4c-0.1,0.2-0.3,0.5-0.4,0.7c-0.1,0.1-0.2,0.3-0.2,0.4
			c-0.1,0.1-0.2,0.3-0.2,0.4c-0.1,0.1-0.1,0.3-0.2,0.4c0,0,0,0,0,0c-13.9-1.5-24.7-2.6-25.4-2.3c-2.2,0.9-8.7,3.1-8.6,4.3
			c0,0.1-0.2,1.9,1.8,2.7c0.1,0.9,49.7,17.5,68.6,23.7c-0.4,0.3-0.8,0.6-1.2,0.9c-3.7,2.8-8.2,6.6-13.3,10.9c0,0,0,0,0,0
			c-0.9,0.7-1.7,1.5-2.6,2.2c0,0,0,0,0,0c-0.9,0.8-1.8,1.5-2.7,2.3c0,0,0,0,0,0c-0.9,0.8-1.8,1.6-2.7,2.4c0,0,0,0,0,0
			c-0.9,0.8-1.8,1.6-2.7,2.4c0,0,0,0,0,0c-0.9,0.8-1.8,1.6-2.7,2.4c0,0,0,0-0.1,0.1c-0.9,0.8-1.8,1.6-2.7,2.4c0,0-0.1,0.1-0.1,0.1
			c-0.9,0.8-1.8,1.6-2.6,2.4c0,0-0.1,0.1-0.1,0.1c-0.9,0.8-1.7,1.6-2.6,2.4c-0.1,0-0.1,0.1-0.2,0.1c-0.9,0.8-1.7,1.6-2.6,2.4
			c0,0-0.1,0.1-0.1,0.1c-0.9,0.8-1.7,1.6-2.6,2.4c0,0-0.1,0.1-0.1,0.1c-0.8,0.8-1.7,1.6-2.5,2.4c0,0-0.1,0.1-0.1,0.1
			c-0.8,0.8-1.7,1.6-2.5,2.3c0,0,0,0-0.1,0.1c-0.8,0.8-1.6,1.5-2.4,2.3c0,0,0,0-0.1,0.1c-0.1,0.1-0.3,0.3-0.4,0.4
			c-8.1-2.3-24.2-6.6-25.5-6c-1.7,0.8-5,4.6-5.2,5.2c-0.2,0.5,11.9,11.1,16.6,15.1c-2.5,2.7-3.8,4.5-3.4,4.8c0.4,0.4,2.8-0.3,6.6-2
			c2.1,5.1,8.8,21.2,9.3,21.2c0.5,0,3.1-1.1,5-2.2v0c0,0,0,0,0,0c0.3-0.2,0.6-0.4,0.9-0.6c0,0,0,0,0,0c0.1-0.1,0.2-0.2,0.3-0.2
			c0,0,0,0,0,0c0.1-0.1,0.2-0.2,0.3-0.3c0,0,0,0,0,0c0,0,0.1-0.1,0.1-0.2c0,0,0-0.1,0.1-0.2c0,0,0-0.1,0-0.1c1-3,1.9-19.2,2.3-26.7
			l0,0c0,0,0,0,0,0c0-0.1,0-0.2,0-0.3c0,0,0-0.1,0-0.1c6.7-3.8,14.3-8.5,22.3-13.8c7.4-4.8,14.3-9.7,20.8-14.4
			c4.4-3.6,8.3-6.7,11.8-9.5c2.4,18,9.8,73.4,10.7,73.7c0.4,2.2,2.2,2.3,2.3,2.3c1.1,0.3,4.5-5.6,5.8-7.6c0.5-0.7,1.5-12.2,2.6-26.9
			c0.1-0.1,0.2-0.1,0.4-0.2c0.1-0.1,0.2-0.1,0.4-0.2c0.1-0.1,0.3-0.2,0.4-0.2c0.1-0.1,0.2-0.2,0.4-0.2c0.1-0.1,0.3-0.2,0.4-0.3
			c0.1-0.1,0.2-0.2,0.4-0.2c0.1-0.1,0.3-0.2,0.4-0.3c0.1-0.1,0.2-0.2,0.4-0.3c0.1-0.1,0.3-0.2,0.4-0.3c0.1-0.1,0.2-0.2,0.4-0.3
			c0.1-0.1,0.3-0.2,0.4-0.3c0.1-0.1,0.2-0.2,0.3-0.3c0.2-0.2,0.5-0.4,0.7-0.5c0.1-0.1,0.3-0.2,0.4-0.3c0.1-0.1,0.2-0.2,0.3-0.3
			c0.1-0.1,0.2-0.2,0.4-0.3c0.1-0.1,0.2-0.2,0.3-0.3c0.1-0.1,0.2-0.2,0.3-0.3c0.1-0.1,0.2-0.2,0.3-0.3c0.1-0.1,0.2-0.2,0.3-0.3
			c0.1-0.1,0.2-0.2,0.3-0.3c0.1-0.1,0.2-0.2,0.3-0.3c0.1-0.1,0.2-0.2,0.3-0.2c0.1-0.1,0.2-0.2,0.3-0.3c0.1-0.1,0.2-0.2,0.3-0.2
			c0.1-0.1,0.2-0.2,0.3-0.3c0.1-0.1,0.2-0.2,0.2-0.2c0.1-0.1,0.2-0.2,0.3-0.3c0.1-0.1,0.2-0.1,0.2-0.2c0.1-0.1,0.2-0.2,0.3-0.2
			c0.1-0.1,0.1-0.1,0.2-0.2c0.1-0.1,0.2-0.2,0.2-0.2c0.1-0.1,0.1-0.1,0.2-0.2c0.1-0.1,0.1-0.1,0.2-0.2c0.1-0.1,0.1-0.1,0.2-0.2
			c0.1-0.1,0.1-0.1,0.2-0.2c0,0,0.1-0.1,0.1-0.1c0.1-0.1,0.1-0.1,0.1-0.2c0,0,0.1-0.1,0.1-0.1c0-0.1,0.1-0.1,0.1-0.2
			c0,0,0-0.1,0.1-0.1c0-0.1,0.1-0.1,0.1-0.2c0,0,0,0,0,0c0.5-1.5-3.4-6-5.6-6.7c-0.3-0.1-0.6-0.1-0.8-0.1c-0.1,0-0.1,0-0.2,0.1
			c0,0,0,0,0,0c-0.8,0.4-2.5,1.9-4.5,3.9c0.4-5.4,0.8-10.9,1.2-16.2c0.1,0,0.1,0,0.2-0.1c0.1-0.1,0.3-0.1,0.4-0.2
			c0.1-0.1,0.3-0.1,0.4-0.2c0.1-0.1,0.3-0.1,0.4-0.2c0.1-0.1,0.3-0.1,0.4-0.2c0.1-0.1,0.3-0.1,0.4-0.2c0.1-0.1,0.3-0.1,0.4-0.2
			c0.1-0.1,0.3-0.1,0.4-0.2c0.3-0.1,0.5-0.3,0.8-0.4c0.1-0.1,0.3-0.1,0.4-0.2c0.1-0.1,0.3-0.1,0.4-0.2c0.1-0.1,0.3-0.1,0.4-0.2
			c0.1-0.1,0.2-0.1,0.4-0.2c0.1-0.1,0.3-0.1,0.4-0.2c0.1-0.1,0.2-0.1,0.4-0.2c0.1-0.1,0.3-0.1,0.4-0.2c0.1-0.1,0.2-0.1,0.3-0.2
			c0.1-0.1,0.3-0.1,0.4-0.2c0.1-0.1,0.2-0.1,0.3-0.2c0.1-0.1,0.2-0.1,0.4-0.2c0.1-0.1,0.2-0.1,0.3-0.2c0.1-0.1,0.2-0.1,0.3-0.2
			c0.1-0.1,0.2-0.1,0.3-0.2c0.1-0.1,0.2-0.1,0.3-0.2c0.1-0.1,0.2-0.1,0.3-0.2c0.1-0.1,0.2-0.1,0.3-0.2c0.1-0.1,0.2-0.1,0.2-0.2
			c0.1-0.1,0.2-0.1,0.3-0.2c0.1,0,0.1-0.1,0.2-0.1c0.1-0.1,0.2-0.1,0.2-0.2c0.1,0,0.1-0.1,0.2-0.1c0.1-0.1,0.1-0.1,0.2-0.2
			c0.1,0,0.1-0.1,0.1-0.1c0.1-0.1,0.1-0.1,0.2-0.1c0,0,0.1-0.1,0.1-0.1c0.1,0,0.1-0.1,0.1-0.1c0,0,0.1,0,0.1-0.1
			c0.1-0.1,0.1-0.1,0.1-0.2c0,0,0,0,0,0c0.9-1.5-3.2-8.1-5.1-7.9c-0.1,0-0.1,0-0.2,0c0,0,0,0-0.1,0c-0.1,0-0.2,0.1-0.2,0.1
			c0,0,0,0,0,0c-0.2,0.1-0.5,0.2-0.8,0.4c0,0,0,0,0,0l0,0c-1.2,0.6-2.8,1.6-4.7,2.9c0.8-10.8,1.4-19.6,1.6-22.9
			c0.5-0.4,1-0.8,1.4-1.2c0,0,0.1-0.1,0.1-0.1c0.7-0.6,1.4-1.1,2-1.7c0,0,0.1-0.1,0.1-0.1c0.6-0.5,1.2-1,1.9-1.6
			c0.1-0.1,0.2-0.1,0.2-0.2c1.3-1.1,2.7-2.2,4-3.3c0,0,0,0,0.1-0.1c0.6-0.5,1.2-1.1,1.9-1.6c0,0,0.1-0.1,0.1-0.1
			c1.3-1.1,2.5-2.2,3.7-3.2c0,0,0.1-0.1,0.1-0.1c0.6-0.5,1.2-1,1.8-1.5c0,0,0,0,0,0c1.2-1.1,2.4-2.1,3.5-3.1c0,0,0.1-0.1,0.1-0.1
			c1.7-1.5,3.3-3,4.8-4.4c0,0,0.1-0.1,0.1-0.1c1-1,2-1.9,2.9-2.8c0,0,0,0,0,0c0.5-0.4,0.9-0.9,1.3-1.3c0,0,0.1-0.1,0.1-0.1
			c0.9-0.9,1.7-1.7,2.5-2.6c0,0,0,0,0.1-0.1c0.4-0.4,0.7-0.8,1.1-1.2c0,0,0,0,0,0c0.7-0.8,1.4-1.6,2-2.3c0,0,0.1-0.1,0.1-0.1
			C155.5,12.1,155.8,11.8,156,11.4C156,11.4,156,11.4,156,11.4C156,11.4,156,11.4,156,11.4z"/>
	</g>
</g>
<g id="PHOTOS">
</g>
<g id="TEXTS">
</g>
</svg>
